<?xml version="1.0" standalone="no"?>
<!DOCTYPE svg PUBLIC "-//W3C//DTD SVG 20010904//EN"
 "http://www.w3.org/TR/2001/REC-SVG-20010904/DTD/svg10.dtd">
<svg version="1.0" xmlns="http://www.w3.org/2000/svg"
 width="106.000000pt" height="137.000000pt" viewBox="0 0 106.000000 137.000000"
 preserveAspectRatio="xMidYMid meet">

<g transform="translate(0.000000,137.000000) scale(0.100000,-0.100000)"
fill="#000000" stroke="none">
<path d="M536 1303 c-3 -10 -10 -54 -16 -98 -22 -146 -45 -178 -188 -257 -116
-64 -146 -97 -139 -150 7 -53 33 -99 121 -218 69 -92 89 -128 69 -118 -5 1
-38 20 -76 41 -79 46 -136 57 -160 33 -33 -33 -41 -89 -27 -179 13 -84 13 -84
-14 -130 -17 -28 -26 -57 -24 -74 3 -27 5 -28 63 -28 49 0 242 42 233 50 -2 2
-42 -2 -91 -8 -76 -10 -89 -9 -103 5 -15 15 -15 18 6 35 13 10 37 30 54 44
l31 27 -24 47 c-23 47 -23 47 -4 74 33 44 112 60 177 35 26 -10 19 7 -41 102
-91 143 -113 223 -76 284 18 31 34 40 125 71 34 11 92 36 129 55 74 37 119 43
142 19 25 -25 37 -108 38 -273 l2 -157 14 90 c27 172 1 380 -61 503 -37 72
-125 192 -141 192 -7 0 -16 -8 -19 -17z"/>
<path d="M887 713 c-8 -16 -33 -91 -56 -168 -61 -206 -127 -335 -226 -445
l-40 -45 54 45 c174 143 343 465 317 603 -8 44 -30 48 -49 10z"/>
<path d="M731 514 c0 -11 3 -14 6 -6 3 7 2 16 -1 19 -3 4 -6 -2 -5 -13z"/>
</g>
</svg>
